# xmcd
#
# Track frame offsets:
#	183
#	12330
#	32743
#	56273
#	74883
#	92015
#	112003
#	123670
#	141298
#	158803
#	180190
#	209953
#	225060
#	252278
#
# Disc length: 3577 seconds
#
# Revision: 1
# Processed by: cddbd v1.4PL0 Copyright (c) Steve Scherf et al.
# Submitted via: audiograbber 1.82.02
#
DISCID=c30df70e
DTITLE=Steve Samuels - Saturday Night Blues
DYEAR=1984
DGENRE=Blues
TTITLE0=Train Time
TTITLE1=I Dig It
TTITLE2=Who Will The Next Fool Be
TTITLE3=Just A Little Bit
TTITLE4=Look On Yonders Wall
TTITLE5=If You Love Me Like You Say
TTITLE6=2620 South La Cienega Ave
TTITLE7=Band Stand Boogie
TTITLE8=Turn Back The Hands Of Time
TTITLE9=I Believe (We Can Work This Whole Thing Out)
TTITLE10=Be Careful With A Fool
TTITLE11=I'm Tore Down
TTITLE12=Things I Used To Do
TTITLE13=Danny Boy
EXTD=
EXTT0=
EXTT1=
EXTT2=
EXTT3=
EXTT4=
EXTT5=
EXTT6=
EXTT7=
EXTT8=
EXTT9=
EXTT10=
EXTT11=
EXTT12=
EXTT13=
PLAYORDER=
